# xmcd
#
# Track frame offsets: 
#        182
#        14240
#        35165
#        50437
#        72410
#        87300
#        105785
#        126077
#        141640
#        160792
#        174475
#        193490
#        207920
#        225557
#        247917
#        268440
#
# Disc length: 3880 seconds
#
# Revision: 7
# Processed by: cddbd v1.5.2PL0 Copyright (c) Steve Scherf et al.
# Submitted via: ExactAudioCopy v1.1
#
DISCID=f10f2610
DTITLE=William Albright - The Complete Rags, Marches and Waltzes
DYEAR=2009
DGENRE=Jazz
TTITLE0=Maple Leaf Rag (1899)
TTITLE1=Original Rags (1899)
TTITLE2=The Favorite (A Ragtime Two-Step, 1904)
TTITLE3=The Easy Winners(A Ragtime Two-Step, 1901)
TTITLE4=Peacherine Rag (1901)
TTITLE5=The Entertainer (A RAgtime Two Step, 1902)
TTITLE6=The Strenuous Life (A RAgtime Two Step, 1902)
TTITLE7=Elite Syncopations (1902)
TTITLE8=A Breeze from Alabama (March and Two-Step, 1902)
TTITLE9=Palm Leaf Rag (A Slow Drag, 1903)
TTITLE10=Weeping Willow (A Ragtime Two-Step, 1903)
TTITLE11=The Cascades (A Rag, 1904)
TTITLE12=The Sycamore (A Concert-Rag, 1904)
TTITLE13=The Chrysanthemum (An Afro-American Intermezzo, 1904)
TTITLE14=Leola (Two-Step, 1905)
TTITLE15=Eugenia (1905)
EXTD=MHS 522771H\nMusical Heritage Society
EXTT0=William Albright, piano
EXTT1=William Albright, piano
EXTT2=William Albright, piano
EXTT3=William Albright, piano
EXTT4=William Albright, piano
EXTT5=William Albright, piano
EXTT6=William Albright, piano
EXTT7=William Albright, piano
EXTT8=William Albright, piano
EXTT9=William Albright, piano
EXTT10=William Albright, piano
EXTT11=William Albright, piano
EXTT12=William Albright, piano
EXTT13=William Albright, piano
EXTT14=William Albright, piano
EXTT15=William Albright, piano
PLAYORDER=
